<svg width="18" height="17" viewBox="0 0 18 17" fill="none" xmlns="http://www.w3.org/2000/svg">
<path d="M13.4498 2.9414C13.2521 2.9414 13.0587 2.99785 12.8943 3.1036C12.7298 3.20935 12.6016 3.35965 12.526 3.53551C12.4503 3.71136 12.4305 3.90487 12.4691 4.09155C12.5076 4.27824 12.6029 4.44972 12.7427 4.58431C12.8826 4.71891 13.0608 4.81056 13.2547 4.8477C13.4487 4.88483 13.6498 4.86577 13.8325 4.79293C14.0152 4.72009 14.1714 4.59674 14.2813 4.43847C14.3912 4.28021 14.4498 4.09414 14.4498 3.9038C14.4498 3.64855 14.3445 3.40377 14.1569 3.22328C13.9694 3.0428 13.7151 2.9414 13.4498 2.9414ZM17.2832 4.88223C17.267 4.21681 17.1375 3.55846 16.8998 2.93338C16.6879 2.39856 16.3582 1.91427 15.9332 1.51385C15.5205 1.10277 15.0161 0.787389 14.4582 0.591561C13.8104 0.355904 13.1255 0.228426 12.4332 0.214624C11.5498 0.166504 11.2665 0.166504 8.99984 0.166504C6.73317 0.166504 6.44984 0.166504 5.5665 0.214624C4.87413 0.228426 4.18929 0.355904 3.5415 0.591561C2.98457 0.789372 2.48062 1.10448 2.0665 1.51385C1.63936 1.91098 1.31165 2.3964 1.10817 2.93338C0.863305 3.55681 0.730846 4.2159 0.716504 4.88223C0.666504 5.73234 0.666504 6.00502 0.666504 8.18645C0.666504 10.3679 0.666504 10.6406 0.716504 11.4907C0.730846 12.157 0.863305 12.8161 1.10817 13.4395C1.31165 13.9765 1.63936 14.4619 2.0665 14.859C2.48062 15.2684 2.98457 15.5835 3.5415 15.7813C4.18929 16.017 4.87413 16.1445 5.5665 16.1583C6.44984 16.2064 6.73317 16.2064 8.99984 16.2064C11.2665 16.2064 11.5498 16.2064 12.4332 16.1583C13.1255 16.1445 13.8104 16.017 14.4582 15.7813C15.0161 15.5855 15.5205 15.2701 15.9332 14.859C16.36 14.4601 16.6901 13.9754 16.8998 13.4395C17.1375 12.8144 17.267 12.1561 17.2832 11.4907C17.2832 10.6406 17.3332 10.3679 17.3332 8.18645C17.3332 6.00502 17.3332 5.73234 17.2832 4.88223ZM15.7832 11.3944C15.7771 11.9035 15.6813 12.4079 15.4998 12.8861C15.3668 13.2352 15.1531 13.5505 14.8748 13.8084C14.6045 14.0735 14.2775 14.2787 13.9165 14.4099C13.4196 14.5846 12.8955 14.6768 12.3665 14.6826C11.5332 14.7227 11.2248 14.7307 9.03317 14.7307C6.8415 14.7307 6.53317 14.7307 5.69984 14.6826C5.15058 14.6925 4.60367 14.6111 4.08317 14.442C3.73799 14.3041 3.42597 14.0994 3.1665 13.8405C2.88991 13.5829 2.67887 13.2672 2.54984 12.9182C2.34638 12.4331 2.23354 11.9173 2.2165 11.3944C2.2165 10.5924 2.1665 10.2957 2.1665 8.18645C2.1665 6.0772 2.1665 5.78046 2.2165 4.97847C2.22024 4.45802 2.31896 3.94225 2.50817 3.45468C2.65488 3.11617 2.88006 2.81442 3.1665 2.57249C3.41968 2.29674 3.73258 2.07773 4.08317 1.93089C4.59113 1.75449 5.1265 1.66229 5.6665 1.65821C6.49984 1.65821 6.80817 1.61009 8.99984 1.61009C11.1915 1.61009 11.4998 1.61009 12.3332 1.65821C12.8621 1.66405 13.3863 1.75625 13.8832 1.93089C14.2619 2.06615 14.6017 2.28605 14.8748 2.57249C15.1479 2.81884 15.3613 3.12003 15.4998 3.45468C15.685 3.94304 15.7809 4.4586 15.7832 4.97847C15.8248 5.78046 15.8332 6.0772 15.8332 8.18645C15.8332 10.2957 15.8248 10.5924 15.7832 11.3944ZM8.99984 4.07222C8.15468 4.0738 7.32897 4.31644 6.62705 4.76948C5.92513 5.22252 5.37849 5.86563 5.0562 6.61755C4.73391 7.36946 4.65044 8.19645 4.81633 8.994C4.98222 9.79155 5.39003 10.5239 5.98823 11.0985C6.58643 11.6731 7.34818 12.0641 8.17722 12.2222C9.00626 12.3803 9.86539 12.2984 10.6461 11.9867C11.4267 11.6751 12.0939 11.1478 12.5633 10.4714C13.0327 9.79495 13.2832 8.99982 13.2832 8.18645C13.2843 7.64518 13.1742 7.10905 12.9592 6.60889C12.7442 6.10873 12.4286 5.6544 12.0306 5.27204C11.6325 4.88968 11.1598 4.58684 10.6397 4.38093C10.1195 4.17502 9.56225 4.0701 8.99984 4.07222ZM8.99984 10.8571C8.45099 10.8571 7.91448 10.7005 7.45813 10.407C7.00178 10.1136 6.6461 9.69645 6.43607 9.20846C6.22604 8.72046 6.17108 8.18349 6.27816 7.66543C6.38523 7.14738 6.64953 6.67151 7.03762 6.29802C7.42571 5.92452 7.92016 5.67017 8.45846 5.56712C8.99676 5.46407 9.55472 5.51696 10.0618 5.7191C10.5688 5.92123 11.0022 6.26353 11.3072 6.70272C11.6121 7.1419 11.7748 7.65824 11.7748 8.18645C11.7748 8.53716 11.7031 8.88444 11.5636 9.20846C11.4241 9.53247 11.2197 9.82688 10.9621 10.0749C10.7044 10.3229 10.3985 10.5196 10.0618 10.6538C9.72511 10.788 9.36426 10.8571 8.99984 10.8571Z" fill="white"/>
</svg>
