<svg width="18" height="17" viewBox="0 0 18 17" fill="none" xmlns="http://www.w3.org/2000/svg">
<path d="M0.625 8.79881C0.625 4.34737 4.37462 0.73877 9 0.73877C13.6254 0.73877 17.375 4.34737 17.375 8.79881C17.375 13.2503 13.6254 16.8589 9 16.8589C4.37462 16.8589 0.625 13.2503 0.625 8.79881ZM2.375 8.79881C2.375 12.3201 5.34111 15.1747 9 15.1747C12.6589 15.1747 15.625 12.3201 15.625 8.79881C15.625 5.27753 12.6589 2.42296 9 2.42296C5.34111 2.42296 2.375 5.27753 2.375 8.79881ZM9 8.35772L7.07705 10.1562C6.73534 10.485 6.18132 10.485 5.83961 10.1562C5.49791 9.8273 5.49791 9.29412 5.83961 8.96526L8.33961 6.55927C8.68132 6.23042 9.23534 6.23042 9.57705 6.55927L12.0771 8.96526C12.4188 9.29412 12.4188 9.8273 12.0771 10.1562C11.7353 10.485 11.1813 10.485 10.8396 10.1562L9 8.35772Z" fill="#000D2F"/>
</svg>
