<svg width="18" height="18" viewBox="0 0 18 18" fill="none" xmlns="http://www.w3.org/2000/svg">
<path d="M9.83342 8.16666H4.83342C4.6124 8.16666 4.40044 8.25445 4.24416 8.41073C4.08788 8.56701 4.00008 8.77898 4.00008 8.99999C4.00008 9.221 4.08788 9.43296 4.24416 9.58924C4.40044 9.74553 4.6124 9.83332 4.83342 9.83332H9.83342C10.0544 9.83332 10.2664 9.74553 10.4227 9.58924C10.579 9.43296 10.6667 9.221 10.6667 8.99999C10.6667 8.77898 10.579 8.56701 10.4227 8.41073C10.2664 8.25445 10.0544 8.16666 9.83342 8.16666ZM13.1667 4.83332H4.83342C4.6124 4.83332 4.40044 4.92112 4.24416 5.0774C4.08788 5.23368 4.00008 5.44564 4.00008 5.66666C4.00008 5.88767 4.08788 6.09963 4.24416 6.25591C4.40044 6.41219 4.6124 6.49999 4.83342 6.49999H13.1667C13.3878 6.49999 13.5997 6.41219 13.756 6.25591C13.9123 6.09963 14.0001 5.88767 14.0001 5.66666C14.0001 5.44564 13.9123 5.23368 13.756 5.0774C13.5997 4.92112 13.3878 4.83332 13.1667 4.83332ZM14.8334 0.666656H3.16675C2.50371 0.666656 1.86782 0.930049 1.39898 1.39889C0.93014 1.86773 0.666748 2.50362 0.666748 3.16666V11.5C0.666748 12.163 0.93014 12.7989 1.39898 13.2678C1.86782 13.7366 2.50371 14 3.16675 14H12.8251L15.9084 17.0917C15.9863 17.1689 16.0786 17.23 16.1802 17.2715C16.2817 17.3129 16.3904 17.334 16.5001 17.3333C16.6094 17.3361 16.7178 17.3133 16.8167 17.2667C16.9689 17.2041 17.0992 17.098 17.1911 16.9615C17.2831 16.8251 17.3326 16.6645 17.3334 16.5V3.16666C17.3334 2.50362 17.07 1.86773 16.6012 1.39889C16.1323 0.930049 15.4965 0.666656 14.8334 0.666656ZM15.6667 14.4917L13.7584 12.575C13.6805 12.4978 13.5882 12.4367 13.4867 12.3952C13.3851 12.3537 13.2764 12.3327 13.1667 12.3333H3.16675C2.94573 12.3333 2.73377 12.2455 2.57749 12.0892C2.42121 11.933 2.33341 11.721 2.33341 11.5V3.16666C2.33341 2.94564 2.42121 2.73368 2.57749 2.5774C2.73377 2.42112 2.94573 2.33332 3.16675 2.33332H14.8334C15.0544 2.33332 15.2664 2.42112 15.4227 2.5774C15.579 2.73368 15.6667 2.94564 15.6667 3.16666V14.4917Z" fill="white"/>
</svg>
